# xmcd CD database file
#
# Track frame offsets:
#	150
#	30912
#	58132
#	71332
#	97924
#	114339
#	143299
#
# Disc length: 2373 seconds
#
# Revision: 0
# Processed by: cddbd v1.5.2PL0 Copyright (c) Steve Scherf et al.
# Submitted via: CDex 1.70beta2
#
DISCID=4b094307
DTITLE=Fanny Anderegg Quartett - La Figlia dal Vent
DYEAR=2005
DGENRE=Jazz
TTITLE0=Plövgia
TTITLE1=Ample
TTITLE2=L'été
TTITLE3=Trais Randulinas
TTITLE4=Le Roi
TTITLE5=Allemande
TTITLE6=No Duos
EXTD=YEAR: 2005
EXTT0=
EXTT1=
EXTT2=
EXTT3=
EXTT4=
EXTT5=
EXTT6=
PLAYORDER=
